<svg width="102" height="99" viewBox="0 0 102 99" fill="none" xmlns="http://www.w3.org/2000/svg">
<path d="M3 5L10.6007 45.4191L15.6679 84.1471L67.0634 97L100 81.6103L86.7892 47.6176V8.88971L61.2724 45.4191H39.375L3 5Z" stroke="#B97800" stroke-width="3"/>
<path d="M35.928 68.344C35.9813 68.4933 36.0187 68.664 36.04 68.856C36.072 69.0373 36.088 69.224 36.088 69.416C36.088 69.608 36.072 69.8 36.04 69.992C36.0187 70.1733 35.9867 70.3333 35.944 70.472C35.7733 71.0693 35.432 71.5707 34.92 71.976C34.408 72.3707 33.8213 72.6587 33.16 72.84C32.5093 73.0213 31.832 73.0853 31.128 73.032C30.4347 72.9787 29.816 72.8027 29.272 72.504C28.9307 72.312 28.6373 72.0773 28.392 71.8C28.1467 71.5227 27.9387 71.2133 27.768 70.872C27.704 70.7547 27.6613 70.6213 27.64 70.472C27.6293 70.312 27.6453 70.1627 27.688 70.024C27.7307 69.8747 27.8 69.7467 27.896 69.64C27.992 69.5227 28.1253 69.4427 28.296 69.4C28.4027 69.3787 28.52 69.368 28.648 69.368C28.7867 69.368 28.92 69.3893 29.048 69.432C29.176 69.464 29.2933 69.5227 29.4 69.608C29.5067 69.6827 29.592 69.7893 29.656 69.928C29.7733 70.152 29.9387 70.36 30.152 70.552C30.376 70.7333 30.6107 70.8827 30.856 71C31.208 71.1173 31.56 71.1653 31.912 71.144C32.2747 71.1227 32.6 71.0427 32.888 70.904C33.1867 70.7653 33.4267 70.5787 33.608 70.344C33.7893 70.0987 33.88 69.8213 33.88 69.512C33.88 69.256 33.8427 69.048 33.768 68.888C33.6933 68.7173 33.5867 68.5787 33.448 68.472C33.32 68.3547 33.16 68.2587 32.968 68.184C32.7867 68.1093 32.584 68.0453 32.36 67.992C32.104 67.9387 31.8427 67.9013 31.576 67.88C31.32 67.8587 31.0587 67.832 30.792 67.8C30.5253 67.768 30.264 67.7253 30.008 67.672C29.752 67.6187 29.5013 67.5387 29.256 67.432C28.7653 67.2293 28.392 66.92 28.136 66.504C27.88 66.088 27.7253 65.64 27.672 65.16C27.6293 64.68 27.688 64.2053 27.848 63.736C28.008 63.256 28.264 62.8453 28.616 62.504C28.9573 62.1947 29.3627 61.976 29.832 61.848C30.312 61.7093 30.84 61.6293 31.416 61.608C31.736 61.5973 32.056 61.608 32.376 61.64C32.7067 61.672 33.0213 61.7253 33.32 61.8C33.6293 61.8747 33.912 61.9707 34.168 62.088C34.4347 62.2053 34.664 62.344 34.856 62.504C34.9947 62.6107 35.1333 62.7547 35.272 62.936C35.4107 63.1067 35.5173 63.2933 35.592 63.496C35.6667 63.688 35.688 63.8747 35.656 64.056C35.6347 64.2373 35.5227 64.392 35.32 64.52C35.1493 64.6267 34.984 64.6747 34.824 64.664C34.6747 64.6427 34.5307 64.5947 34.392 64.52C34.2533 64.4347 34.12 64.3387 33.992 64.232C33.864 64.1253 33.7467 64.0293 33.64 63.944C33.352 63.7307 32.9947 63.5867 32.568 63.512C32.1413 63.4373 31.7413 63.4213 31.368 63.464C31.1333 63.496 30.9147 63.5493 30.712 63.624C30.5093 63.6987 30.3333 63.8 30.184 63.928C30.0453 64.056 29.9333 64.216 29.848 64.408C29.7733 64.5893 29.7467 64.7973 29.768 65.032C29.7787 65.2027 29.8267 65.3467 29.912 65.464C30.008 65.5813 30.12 65.6773 30.248 65.752C30.3867 65.8267 30.536 65.8853 30.696 65.928C30.856 65.9707 31.016 66.0027 31.176 66.024C31.656 66.088 32.136 66.136 32.616 66.168C33.096 66.2 33.5653 66.3067 34.024 66.488C34.4933 66.6693 34.8933 66.9147 35.224 67.224C35.5547 67.5333 35.7893 67.9067 35.928 68.344ZM39.3904 66.936C39.3904 67.2347 39.3904 67.5707 39.3904 67.944C39.401 68.3173 39.4064 68.7067 39.4064 69.112C39.4064 69.5067 39.4064 69.9013 39.4064 70.296C39.4064 70.68 39.401 71.0373 39.3904 71.368C39.3797 71.528 39.3637 71.704 39.3424 71.896C39.321 72.0773 39.2784 72.248 39.2144 72.408C39.1504 72.568 39.049 72.7013 38.9104 72.808C38.7824 72.904 38.6064 72.9467 38.3824 72.936C38.0517 72.9147 37.8117 72.7707 37.6624 72.504C37.5237 72.2373 37.4437 71.864 37.4224 71.384C37.4224 71.1387 37.417 70.856 37.4064 70.536C37.4064 70.216 37.401 69.8907 37.3904 69.56C37.3904 69.2293 37.3904 68.9093 37.3904 68.6C37.3904 68.28 37.3904 67.992 37.3904 67.736C37.3904 67.5867 37.385 67.4053 37.3744 67.192C37.3744 66.9787 37.3797 66.76 37.3904 66.536C37.401 66.312 37.4277 66.0987 37.4704 65.896C37.513 65.6827 37.5824 65.5067 37.6784 65.368C37.753 65.2827 37.8597 65.2187 37.9984 65.176C38.137 65.1227 38.281 65.096 38.4304 65.096C38.5904 65.096 38.7397 65.1227 38.8784 65.176C39.0277 65.2293 39.1344 65.304 39.1984 65.4C39.241 65.464 39.273 65.5547 39.2944 65.672C39.3157 65.7893 39.3317 65.9227 39.3424 66.072C39.3637 66.2107 39.3744 66.36 39.3744 66.52C39.385 66.6693 39.3904 66.808 39.3904 66.936ZM38.7824 63.704C38.4517 63.7893 38.1744 63.7573 37.9504 63.608C37.737 63.448 37.6037 63.2133 37.5504 62.904C37.5077 62.68 37.5237 62.4827 37.5984 62.312C37.673 62.1413 37.785 62.0133 37.9344 61.928C38.0837 61.832 38.2544 61.7893 38.4464 61.8C38.6384 61.8107 38.8304 61.8853 39.0224 62.024C39.2037 62.152 39.3317 62.3013 39.4064 62.472C39.4917 62.6427 39.5184 62.808 39.4864 62.968C39.465 63.128 39.3957 63.2773 39.2784 63.416C39.161 63.544 38.9957 63.64 38.7824 63.704ZM43.0805 71.72C43.0698 71.7733 43.0592 71.8267 43.0485 71.88C43.0485 71.9227 43.0485 71.9707 43.0485 72.024L42.9525 72.36C42.9312 72.4027 42.9152 72.4293 42.9045 72.44L42.8565 72.536C42.8032 72.6533 42.7072 72.7493 42.5685 72.824C42.3125 72.952 42.0405 72.984 41.7525 72.92C41.5712 72.8987 41.4272 72.8453 41.3205 72.76C41.2138 72.6853 41.1392 72.5947 41.0965 72.488C41.0538 72.3813 41.0218 72.2747 41.0005 72.168C40.9685 72.0613 40.9525 71.9653 40.9525 71.88V62.92C40.9525 62.8453 40.9525 62.7813 40.9525 62.728C40.9632 62.664 40.9738 62.6053 40.9845 62.552C40.9952 62.4773 41.0058 62.4133 41.0165 62.36C41.0378 62.3067 41.0592 62.248 41.0805 62.184C41.1125 62.0773 41.1712 61.992 41.2565 61.928C41.3845 61.832 41.5072 61.7787 41.6245 61.768C41.6992 61.7467 41.7685 61.736 41.8325 61.736C41.8965 61.7253 41.9712 61.72 42.0565 61.72C42.2058 61.72 42.3765 61.7627 42.5685 61.848C42.7178 61.9333 42.8245 62.0507 42.8885 62.2C42.9952 62.4133 43.0485 62.6107 43.0485 62.792C43.0592 62.8987 43.0645 63.0587 43.0645 63.272C43.0752 63.4853 43.0805 63.6453 43.0805 63.752V63.816C43.1018 64.1573 43.1125 64.488 43.1125 64.808C43.1125 65.1173 43.1072 65.4587 43.0965 65.832C43.0965 66.1947 43.0912 66.5467 43.0805 66.888C43.0805 67.2187 43.0805 67.5493 43.0805 67.88V71.24C43.0805 71.2827 43.0805 71.3253 43.0805 71.368C43.0912 71.4 43.0965 71.4373 43.0965 71.48C43.0965 71.5867 43.0912 71.6667 43.0805 71.72ZM47.2055 71.72C47.1948 71.7733 47.1842 71.8267 47.1735 71.88C47.1735 71.9227 47.1735 71.9707 47.1735 72.024L47.0775 72.36C47.0562 72.4027 47.0402 72.4293 47.0295 72.44L46.9815 72.536C46.9282 72.6533 46.8322 72.7493 46.6935 72.824C46.4375 72.952 46.1655 72.984 45.8775 72.92C45.6962 72.8987 45.5522 72.8453 45.4455 72.76C45.3388 72.6853 45.2642 72.5947 45.2215 72.488C45.1788 72.3813 45.1468 72.2747 45.1255 72.168C45.0935 72.0613 45.0775 71.9653 45.0775 71.88V62.92C45.0775 62.8453 45.0775 62.7813 45.0775 62.728C45.0882 62.664 45.0988 62.6053 45.1095 62.552C45.1202 62.4773 45.1308 62.4133 45.1415 62.36C45.1628 62.3067 45.1842 62.248 45.2055 62.184C45.2375 62.0773 45.2962 61.992 45.3815 61.928C45.5095 61.832 45.6322 61.7787 45.7495 61.768C45.8242 61.7467 45.8935 61.736 45.9575 61.736C46.0215 61.7253 46.0962 61.72 46.1815 61.72C46.3308 61.72 46.5015 61.7627 46.6935 61.848C46.8428 61.9333 46.9495 62.0507 47.0135 62.2C47.1202 62.4133 47.1735 62.6107 47.1735 62.792C47.1842 62.8987 47.1895 63.0587 47.1895 63.272C47.2002 63.4853 47.2055 63.6453 47.2055 63.752V63.816C47.2268 64.1573 47.2375 64.488 47.2375 64.808C47.2375 65.1173 47.2322 65.4587 47.2215 65.832C47.2215 66.1947 47.2162 66.5467 47.2055 66.888C47.2055 67.2187 47.2055 67.5493 47.2055 67.88V71.24C47.2055 71.2827 47.2055 71.3253 47.2055 71.368C47.2162 71.4 47.2215 71.4373 47.2215 71.48C47.2215 71.5867 47.2162 71.6667 47.2055 71.72ZM55.859 65.864C55.955 66.0133 55.9977 66.1733 55.987 66.344C55.987 66.5893 55.9443 66.8027 55.859 66.984C55.8377 67.0373 55.8057 67.1067 55.763 67.192C55.731 67.2773 55.6937 67.368 55.651 67.464C55.619 67.56 55.5817 67.6507 55.539 67.736C55.4963 67.8213 55.4643 67.8853 55.443 67.928L55.411 68.008C55.2617 68.3387 55.1177 68.6587 54.979 68.968C54.8403 69.2773 54.6857 69.608 54.515 69.96C54.3443 70.3013 54.179 70.6373 54.019 70.968C53.8697 71.288 53.7203 71.6027 53.571 71.912C53.5283 71.9973 53.491 72.0827 53.459 72.168C53.427 72.2427 53.3843 72.3227 53.331 72.408L52.563 74.056C52.4243 74.3333 52.291 74.6053 52.163 74.872C52.0457 75.1387 51.9123 75.4053 51.763 75.672C51.731 75.7253 51.699 75.7733 51.667 75.816C51.6457 75.8693 51.6243 75.9227 51.603 75.976C51.5283 76.104 51.4163 76.2267 51.267 76.344C51.1283 76.472 50.979 76.5413 50.819 76.552C50.531 76.5733 50.2803 76.488 50.067 76.296C49.939 76.2213 49.8377 76.1147 49.763 75.976C49.7203 75.88 49.699 75.7573 49.699 75.608C49.7097 75.544 49.715 75.48 49.715 75.416C49.7257 75.3627 49.7363 75.3093 49.747 75.256C49.7683 75.2027 49.7843 75.1493 49.795 75.096C49.8057 75.0427 49.8217 75 49.843 74.968C49.875 74.8827 49.9017 74.84 49.923 74.84L51.091 72.312C51.0377 72.1947 50.9843 72.0773 50.931 71.96C50.8777 71.832 50.8297 71.72 50.787 71.624C50.6483 71.2933 50.499 70.9467 50.339 70.584C50.1897 70.2107 50.035 69.8427 49.875 69.48C49.715 69.1067 49.5497 68.744 49.379 68.392C49.2083 68.04 49.0377 67.704 48.867 67.384C48.803 67.2773 48.7443 67.1653 48.691 67.048C48.6377 66.92 48.595 66.7973 48.563 66.68C48.531 66.552 48.5203 66.424 48.531 66.296C48.5417 66.168 48.5897 66.04 48.675 65.912C48.7603 65.752 48.8723 65.64 49.011 65.576C49.1497 65.5013 49.2937 65.4693 49.443 65.48C49.603 65.48 49.7523 65.512 49.891 65.576C50.0297 65.64 50.1417 65.7253 50.227 65.832C50.4083 66.024 50.5523 66.2373 50.659 66.472C50.7657 66.7067 50.867 66.9467 50.963 67.192C51.1657 67.6187 51.3737 68.0667 51.587 68.536C51.8003 69.0053 52.0137 69.464 52.227 69.912L53.059 68.152C53.1443 67.9813 53.219 67.816 53.283 67.656C53.3577 67.496 53.4323 67.3413 53.507 67.192C53.5923 67.0107 53.6723 66.824 53.747 66.632C53.8323 66.44 53.9283 66.264 54.035 66.104C54.0563 66.0613 54.0777 66.024 54.099 65.992C54.1203 65.96 54.1417 65.9227 54.163 65.88C54.259 65.752 54.3443 65.6507 54.419 65.576C54.4723 65.5333 54.515 65.5013 54.547 65.48C54.5897 65.448 54.6377 65.4267 54.691 65.416C54.7657 65.3947 54.835 65.384 54.899 65.384C54.9737 65.3733 55.043 65.3733 55.107 65.384C55.2137 65.416 55.3417 65.464 55.491 65.528C55.651 65.592 55.7737 65.704 55.859 65.864ZM61.8726 66.232C62.054 66.2853 62.1713 66.3867 62.2246 66.536C62.278 66.6747 62.294 66.824 62.2726 66.984C62.2086 67.3147 62.0273 67.5173 61.7286 67.592C61.558 67.6347 61.382 67.656 61.2006 67.656C61.03 67.656 60.854 67.6613 60.6726 67.672V71.368C60.6726 71.624 60.6566 71.8853 60.6246 72.152C60.6246 72.248 60.598 72.3493 60.5446 72.456C60.5233 72.5093 60.5073 72.5413 60.4966 72.552C60.4966 72.5733 60.486 72.6053 60.4646 72.648C60.4006 72.7653 60.3153 72.8613 60.2086 72.936C59.974 73.064 59.7233 73.096 59.4566 73.032C59.2966 73 59.174 72.9467 59.0886 72.872C58.9926 72.7973 58.9233 72.7067 58.8806 72.6C58.8593 72.5467 58.8433 72.4933 58.8326 72.44C58.822 72.3867 58.806 72.3333 58.7846 72.28C58.774 72.2267 58.7633 72.1787 58.7526 72.136C58.7526 72.0827 58.7526 72.04 58.7526 72.008V71.08C58.7526 70.5253 58.7526 69.9493 58.7526 69.352C58.7633 68.7547 58.7686 68.1787 58.7686 67.624C58.5233 67.6133 58.2673 67.608 58.0006 67.608C57.7446 67.5973 57.558 67.5333 57.4406 67.416C57.3766 67.352 57.334 67.272 57.3126 67.176C57.2913 67.0693 57.2806 66.9627 57.2806 66.856C57.2913 66.7493 57.3126 66.6533 57.3446 66.568C57.3766 66.472 57.4193 66.4027 57.4726 66.36C57.6113 66.232 57.734 66.1627 57.8406 66.152C57.958 66.1307 58.102 66.1147 58.2726 66.104C58.294 66.104 58.3633 66.104 58.4806 66.104C58.6086 66.0933 58.6886 66.088 58.7206 66.088C58.7313 65.7253 58.742 65.3627 58.7526 65C58.7633 64.6373 58.7953 64.3067 58.8486 64.008C58.9126 63.6987 59.0033 63.432 59.1206 63.208C59.2486 62.9733 59.4406 62.7973 59.6966 62.68C60.006 62.5413 60.358 62.456 60.7526 62.424C61.1473 62.392 61.5046 62.44 61.8246 62.568C61.974 62.6213 62.118 62.728 62.2566 62.888C62.406 63.048 62.4753 63.224 62.4646 63.416C62.454 63.608 62.4166 63.784 62.3526 63.944C62.2886 64.104 62.15 64.2107 61.9366 64.264C61.8406 64.2853 61.7393 64.296 61.6326 64.296C61.5366 64.2853 61.4353 64.28 61.3286 64.28C61.222 64.28 61.1206 64.296 61.0246 64.328C60.9393 64.3493 60.8646 64.3973 60.8006 64.472C60.7473 64.536 60.71 64.6213 60.6886 64.728C60.678 64.8347 60.6673 64.9467 60.6566 65.064C60.646 65.1813 60.6406 65.2987 60.6406 65.416C60.6513 65.5227 60.6566 65.6133 60.6566 65.688V66.088C60.902 66.1093 61.126 66.1253 61.3286 66.136C61.542 66.1467 61.7233 66.1787 61.8726 66.232ZM65.1884 65.768C65.5404 65.5973 65.9084 65.4747 66.2924 65.4C66.6764 65.3253 67.055 65.3093 67.4284 65.352C67.8124 65.3947 68.1804 65.496 68.5324 65.656C68.895 65.816 69.2257 66.04 69.5244 66.328C69.7697 66.5733 69.983 66.872 70.1644 67.224C70.3457 67.5653 70.479 67.9013 70.5644 68.232C70.7457 68.8187 70.7724 69.4107 70.6444 70.008C70.5164 70.6053 70.2977 71.16 69.9884 71.672C69.839 71.9067 69.6524 72.12 69.4284 72.312C69.215 72.4933 68.9857 72.6427 68.7404 72.76C68.4204 72.9093 68.0737 73.0107 67.7004 73.064C67.327 73.128 66.9644 73.144 66.6124 73.112C65.9724 73.08 65.407 72.92 64.9164 72.632C64.4364 72.344 64.047 71.976 63.7484 71.528C63.4604 71.08 63.2684 70.5733 63.1724 70.008C63.087 69.432 63.1244 68.8453 63.2844 68.248C63.455 67.608 63.7004 67.0907 64.0204 66.696C64.351 66.2907 64.7404 65.9813 65.1884 65.768ZM65.6684 67.912C65.5084 68.0613 65.3857 68.248 65.3004 68.472C65.215 68.696 65.1617 68.9307 65.1404 69.176C65.119 69.4107 65.135 69.6507 65.1884 69.896C65.2524 70.1307 65.3484 70.344 65.4764 70.536C65.583 70.696 65.775 70.8293 66.0524 70.936C66.3297 71.0427 66.6177 71.1067 66.9164 71.128C67.2577 71.1493 67.5564 71.0587 67.8124 70.856C68.0684 70.6427 68.2604 70.3813 68.3884 70.072C68.527 69.7627 68.591 69.4267 68.5804 69.064C68.5697 68.7013 68.4737 68.3707 68.2924 68.072C68.1644 67.8587 67.983 67.704 67.7484 67.608C67.5244 67.5013 67.2844 67.448 67.0284 67.448C66.783 67.4373 66.5377 67.4747 66.2924 67.56C66.047 67.6347 65.839 67.752 65.6684 67.912ZM77.2954 69.944C77.4127 70.0933 77.5727 70.2853 77.7754 70.52C77.9887 70.744 78.186 70.984 78.3674 71.24C78.5594 71.4853 78.714 71.7307 78.8314 71.976C78.9487 72.2213 78.9807 72.4347 78.9274 72.616C78.842 72.8933 78.682 73.0533 78.4474 73.096C78.2127 73.1387 77.9674 73.096 77.7114 72.968C77.53 72.8827 77.322 72.7333 77.0874 72.52C76.8527 72.3067 76.6234 72.0827 76.3994 71.848C76.186 71.6133 75.994 71.3947 75.8234 71.192C75.6527 70.9787 75.5354 70.8293 75.4714 70.744C75.4714 70.7333 75.466 70.728 75.4554 70.728C75.4554 70.728 75.4554 70.7227 75.4554 70.712C75.3807 70.7973 75.306 70.8933 75.2314 71C75.1567 71.096 75.0767 71.192 74.9914 71.288C74.8847 71.416 74.762 71.5707 74.6234 71.752C74.4954 71.9227 74.3514 72.0933 74.1914 72.264C74.042 72.4347 73.882 72.5947 73.7114 72.744C73.5514 72.8827 73.3914 72.984 73.2314 73.048C73.018 73.1333 72.81 73.1173 72.6074 73C72.4154 72.8933 72.2927 72.744 72.2394 72.552C72.1754 72.328 72.1914 72.0933 72.2874 71.848C72.3834 71.6027 72.5114 71.368 72.6714 71.144C72.8314 70.9093 73.002 70.6853 73.1834 70.472C73.3754 70.2587 73.53 70.072 73.6474 69.912C73.7647 69.7627 73.866 69.6347 73.9514 69.528C74.0474 69.4107 74.138 69.2987 74.2234 69.192C74.074 69.032 73.914 68.856 73.7434 68.664C73.5727 68.4613 73.3327 68.2 73.0234 67.88C72.9167 67.7627 72.7994 67.6347 72.6714 67.496C72.5434 67.3467 72.426 67.192 72.3194 67.032C72.2127 66.872 72.1274 66.7067 72.0634 66.536C71.9994 66.3653 71.9834 66.1893 72.0154 66.008C72.0474 65.848 72.1167 65.72 72.2234 65.624C72.33 65.5173 72.458 65.448 72.6074 65.416C72.7567 65.3733 72.9114 65.368 73.0714 65.4C73.2314 65.432 73.3807 65.496 73.5194 65.592C73.7967 65.7947 74.058 66.0453 74.3034 66.344C74.5487 66.6427 74.7887 66.9253 75.0234 67.192C75.098 67.288 75.1674 67.3787 75.2314 67.464C75.306 67.5387 75.3754 67.6133 75.4394 67.688C75.4927 67.6027 75.5567 67.5173 75.6314 67.432C75.7167 67.3467 75.802 67.2453 75.8874 67.128C76.1007 66.872 76.314 66.6053 76.5274 66.328C76.7514 66.0507 76.9967 65.8107 77.2634 65.608C77.402 65.5013 77.546 65.4373 77.6954 65.416C77.8554 65.384 78.0047 65.3893 78.1434 65.432C78.282 65.464 78.4047 65.528 78.5114 65.624C78.618 65.72 78.6874 65.8373 78.7194 65.976C78.762 66.1467 78.7567 66.3173 78.7034 66.488C78.6607 66.6587 78.586 66.824 78.4794 66.984C78.3834 67.144 78.2714 67.2987 78.1434 67.448C78.026 67.5867 77.914 67.7147 77.8074 67.832C77.562 68.0987 77.3487 68.3387 77.1674 68.552C76.986 68.7653 76.8154 68.968 76.6554 69.16C76.7514 69.2667 76.8474 69.384 76.9434 69.512C77.05 69.6293 77.1674 69.7733 77.2954 69.944Z" fill="white"/>
</svg>
